<svg width="27" height="22" viewBox="0 0 27 22" fill="none" xmlns="http://www.w3.org/2000/svg">
<path d="M23.9062 2.20006H17.9999V1.92493C17.9999 0.863468 17.1168 0 16.0312 0H10.9688C9.88316 0 9.00007 0.863468 9.00007 1.92493V2.20006H3.09382C1.38716 2.20006 0 3.55619 0 5.22492V18.9749C0 20.6437 1.38716 22 3.09382 22H23.9062C25.6128 22 27 20.6437 27 18.9749V5.22492C27 3.55619 25.6128 2.20006 23.9062 2.20006ZM15.7511 4.39992H11.2499V2.20006H15.7501L15.7511 4.39992ZM8.4375 7.69991C9.98781 7.69991 11.2499 8.93418 11.2499 10.45C11.2499 11.9657 9.98781 13.2 8.4375 13.2C6.88719 13.2 5.62507 11.9657 5.62507 10.45C5.62507 8.93418 6.88719 7.69991 8.4375 7.69991ZM13.5 17.875C13.5 18.3304 13.122 18.7 12.6562 18.7H4.21875C3.753 18.7 3.375 18.3304 3.375 17.875V17.3249C3.375 15.6562 4.76216 14.2999 6.46882 14.2999H10.4062C12.1128 14.2999 13.5 15.6562 13.5 17.3249V17.875ZM22.7812 18.7H16.5938C16.1281 18.7 15.7501 18.3304 15.7501 17.875C15.7501 17.4196 16.1281 17.05 16.5938 17.05H22.7812C23.247 17.05 23.625 17.4196 23.625 17.875C23.625 18.3304 23.247 18.7 22.7812 18.7ZM22.7812 14.2999H16.5938C16.1281 14.2999 15.7501 13.9303 15.7501 13.4749C15.7501 13.0195 16.1281 12.6499 16.5938 12.6499H22.7812C23.247 12.6499 23.625 13.0195 23.625 13.4749C23.625 13.9303 23.247 14.2999 22.7812 14.2999ZM22.7812 9.89997H16.5938C16.1281 9.89997 15.7501 9.53037 15.7501 9.07497C15.7501 8.61957 16.1281 8.24998 16.5938 8.24998H22.7812C23.247 8.24998 23.625 8.61957 23.625 9.07497C23.625 9.53037 23.247 9.89997 22.7812 9.89997Z" fill="white"/>
</svg>
