<svg width="27" height="28" viewBox="0 0 27 28" fill="none" xmlns="http://www.w3.org/2000/svg">
<g clip-path="url(#clip0_7_38)">
<path d="M12.1765 13.8563C12.8815 14.3437 14.1185 14.3438 14.8237 13.8562C14.8238 13.8562 14.824 13.8561 14.8241 13.856L26.8405 5.54834C26.4463 4.3662 25.363 3.5146 24.0908 3.5146H2.90917C1.63695 3.5146 0.553616 4.3662 0.159424 5.54834L12.1761 13.8561C12.1763 13.8562 12.1764 13.8562 12.1765 13.8563Z" fill="white"/>
<path d="M15.7016 15.2212C15.7014 15.2213 15.7013 15.2214 15.7012 15.2214C15.0841 15.6481 14.2919 15.8614 13.5 15.8614C12.7079 15.8614 11.9161 15.6481 11.2989 15.2214C11.2988 15.2213 11.2987 15.2213 11.2986 15.2212L0 7.40988V21.4686C0 23.1321 1.30503 24.4854 2.90917 24.4854H24.0909C25.695 24.4854 27 23.1321 27 21.4686V7.40988L15.7016 15.2212Z" fill="white"/>
</g>
<defs>
<clipPath id="clip0_7_38">
<rect width="27" height="28" fill="white"/>
</clipPath>
</defs>
</svg>
