<svg width="25" height="25" viewBox="0 0 25 25" fill="none" xmlns="http://www.w3.org/2000/svg">
<g clip-path="url(#clip0_3_21)">
<path d="M19.5312 9.375H18.75V6.25C18.75 2.80312 15.9469 0 12.5 0C9.05312 0 6.25 2.80312 6.25 6.25V9.375H5.46875C4.17708 9.375 3.125 10.426 3.125 11.7187V22.6562C3.125 23.949 4.17708 25 5.46875 25H19.5312C20.8229 25 21.875 23.949 21.875 22.6562V11.7187C21.875 10.426 20.8229 9.375 19.5312 9.375ZM8.33333 6.25C8.33333 3.95208 10.2021 2.08333 12.5 2.08333C14.7979 2.08333 16.6667 3.95208 16.6667 6.25V9.375H8.33333V6.25ZM13.5417 17.4187V19.7917C13.5417 20.3667 13.076 20.8333 12.5 20.8333C11.924 20.8333 11.4583 20.3667 11.4583 19.7917V17.4187C10.8385 17.0573 10.4167 16.3927 10.4167 15.625C10.4167 14.476 11.351 13.5417 12.5 13.5417C13.649 13.5417 14.5833 14.476 14.5833 15.625C14.5833 16.3927 14.1615 17.0573 13.5417 17.4187Z" fill="white"/>
</g>
<defs>
<clipPath id="clip0_3_21">
<rect width="25" height="25" fill="white"/>
</clipPath>
</defs>
</svg>
